<svg id="Layer_1" data-name="Layer 1" xmlns="http://www.w3.org/2000/svg" viewBox="0 0 65.68 65.43"><defs><style>.cls-1{fill:#12723a;}.cls-2{fill:#fff;}</style></defs><title>Artboard 1</title><path class="cls-1" d="M30.8,0h4.08c.87.13,1.76.1,2.64.18a27.09,27.09,0,0,1,6.74,1.68,34.76,34.76,0,0,1,5.16,2.46A31.75,31.75,0,0,1,56,9.39a32.2,32.2,0,0,1,4.67,5.83,39.06,39.06,0,0,1,2.66,5.19,33.67,33.67,0,0,1,1.57,5.08c.23.89.33,1.8.49,2.7s.15,1.62.26,2.43a15.2,15.2,0,0,1,0,2.46,13.64,13.64,0,0,1-.13,2.52,19.19,19.19,0,0,1-.37,2.59,25.08,25.08,0,0,1-1.3,5.09,24.36,24.36,0,0,1-1,2.61,35.84,35.84,0,0,1-2.73,4.95,36.45,36.45,0,0,1-5.2,6A31.69,31.69,0,0,1,52,59.21a37.83,37.83,0,0,1-5.15,3.07,37.89,37.89,0,0,1-5.3,2,32.59,32.59,0,0,1-17.39,0c-1.38-.44-2.76-.88-4.1-1.45-.42-.18-.85-.36-1.25-.59a31.48,31.48,0,0,1-5.08-3c-.29-.21-.57-.42-.84-.65-.63-.43-1.17-1-1.78-1.43a37.42,37.42,0,0,1-5.51-6.3A33.14,33.14,0,0,1,2.86,45.9C2.44,45,2.06,44,1.73,43a27,27,0,0,1-1.18-4.7,18.72,18.72,0,0,1-.38-2.7A14,14,0,0,1,0,33.1a14.93,14.93,0,0,1,0-2.47c.12-.81.1-1.63.26-2.43s.25-1.82.49-2.7a33.65,33.65,0,0,1,1.57-5.1c.74-1.68,1.49-3.35,2.36-5a21.42,21.42,0,0,0,2.1-2.78,33.36,33.36,0,0,1,9.42-8.32,35.53,35.53,0,0,1,5.16-2.46A24.67,24.67,0,0,1,30.31.06c.16,0,.34.05.49-.06"/><path class="cls-2" d="M19.48,46.3c.58-1.71,1.09-3.28,1.64-4.84a.88.88,0,0,0-.11-.87,14.27,14.27,0,1,1,14.08,6.13,13.88,13.88,0,0,1-9.59-1.86,1.2,1.2,0,0,0-1.12-.13c-1.58.53-3.17,1-4.9,1.58"/><path class="cls-1" d="M24.55,28.81a4.66,4.66,0,0,1,1.2-3.19,2.55,2.55,0,0,1,2.44-.73c.34,0,.5.3.62.58.46,1.07.89,2.15,1.35,3.22A1,1,0,0,1,30,29.75c-.12.15-.23.31-.36.45-1.06,1.11-1,1.07-.11,2.34a10.85,10.85,0,0,0,4.8,3.94c.82.34,1,.28,1.58-.4.28-.35.54-.71.8-1.07a.87.87,0,0,1,1.17-.31c1.05.49,2.1,1,3.16,1.49a.76.76,0,0,1,.42.9,3.58,3.58,0,0,1-3.13,3.41,6,6,0,0,1-2.88-.3c-4.7-1.35-7.85-4.54-10.19-8.66a5.27,5.27,0,0,1-.72-2.74"/></svg>